<svg width="95" height="33" viewBox="0 0 95 33" fill="none" xmlns="http://www.w3.org/2000/svg">
<path d="M4.98 23.24C3.95333 23.24 3.01333 23.04 2.16 22.64C1.30667 22.24 0.66 21.6067 0.22 20.74L1.46 19.84C1.87333 20.5467 2.38 21.0467 2.98 21.34C3.58 21.6333 4.26 21.78 5.02 21.78C5.60667 21.78 6.12667 21.7067 6.58 21.56C7.03333 21.4 7.40667 21.1867 7.7 20.92C8.00667 20.64 8.23333 20.32 8.38 19.96C8.54 19.6 8.62 19.2133 8.62 18.8C8.62 18.2 8.45333 17.72 8.12 17.36C7.78667 17 7.24667 16.7467 6.5 16.6L5.16 16.34C4.17333 16.1533 3.41333 15.7667 2.88 15.18C2.36 14.58 2.1 13.8267 2.1 12.92C2.1 12.36 2.20667 11.8333 2.42 11.34C2.63333 10.8333 2.94 10.3933 3.34 10.02C3.75333 9.64667 4.26 9.35333 4.86 9.14C5.46 8.91333 6.14667 8.8 6.92 8.8C8 8.8 8.9 9 9.62 9.4C10.3533 9.8 10.9533 10.32 11.42 10.96L10.24 11.94C9.85333 11.42 9.38667 11.0133 8.84 10.72C8.29333 10.4133 7.62 10.26 6.82 10.26C5.87333 10.26 5.12 10.48 4.56 10.92C4 11.36 3.72 11.9867 3.72 12.8C3.72 13.9733 4.42667 14.7 5.84 14.98L7.18 15.24C8.16667 15.4267 8.92 15.8133 9.44 16.4C9.97333 16.9867 10.24 17.76 10.24 18.72C10.24 19.3467 10.12 19.9333 9.88 20.48C9.65333 21.0267 9.31333 21.5067 8.86 21.92C8.42 22.3333 7.87333 22.66 7.22 22.9C6.56667 23.1267 5.82 23.24 4.98 23.24ZM13.663 23C13.1963 23 12.843 22.8867 12.603 22.66C12.3763 22.42 12.263 22.1133 12.263 21.74C12.263 21.62 12.283 21.46 12.323 21.26L13.783 14.04H12.263L12.523 12.68H13.303C13.6763 12.68 13.923 12.6067 14.043 12.46C14.1763 12.3133 14.2763 12.06 14.343 11.7L14.723 9.82H16.143L15.583 12.68H17.763L17.503 14.04H15.323L13.783 21.64H15.803L15.543 23H13.663ZM17.4692 23L19.5492 12.68H21.0892L20.6492 14.74H20.7492C20.8826 14.4867 21.0426 14.24 21.2292 14C21.4159 13.7467 21.6292 13.5267 21.8692 13.34C22.1226 13.14 22.4092 12.98 22.7292 12.86C23.0492 12.74 23.4226 12.68 23.8492 12.68H24.4892L24.1892 14.26H23.4692C22.9892 14.26 22.5626 14.3333 22.1892 14.48C21.8292 14.6133 21.5159 14.8 21.2492 15.04C20.9826 15.28 20.7626 15.56 20.5892 15.88C20.4292 16.1867 20.3159 16.5133 20.2492 16.86L19.0092 23H17.4692ZM28.2167 23.24C26.9767 23.24 26.0167 22.8733 25.3367 22.14C24.6567 21.4067 24.3167 20.3333 24.3167 18.92C24.3167 18.0667 24.4434 17.2533 24.6967 16.48C24.9634 15.6933 25.3301 15 25.7967 14.4C26.2767 13.8 26.8434 13.3267 27.4967 12.98C28.1634 12.62 28.9034 12.44 29.7167 12.44C30.1567 12.44 30.5767 12.5 30.9767 12.62C31.3767 12.7267 31.7301 12.8933 32.0367 13.12C32.3434 13.3467 32.5834 13.6333 32.7567 13.98C32.9434 14.3267 33.0367 14.7333 33.0367 15.2C33.0367 16.3333 32.4501 17.1733 31.2767 17.72C30.1167 18.2667 28.3301 18.5533 25.9167 18.58C25.8901 18.7267 25.8701 18.88 25.8567 19.04C25.8567 19.1867 25.8567 19.3133 25.8567 19.42C25.8567 20.1533 26.0634 20.7467 26.4767 21.2C26.9034 21.64 27.5167 21.86 28.3167 21.86C28.9701 21.86 29.5567 21.7133 30.0767 21.42C30.6101 21.1133 31.0767 20.7133 31.4767 20.22L32.4767 21.12C31.8367 21.9067 31.1501 22.46 30.4167 22.78C29.6967 23.0867 28.9634 23.24 28.2167 23.24ZM29.5567 13.76C29.1567 13.76 28.7701 13.8333 28.3967 13.98C28.0367 14.1267 27.7101 14.3333 27.4167 14.6C27.1367 14.8533 26.8901 15.1733 26.6767 15.56C26.4767 15.9333 26.3301 16.3467 26.2367 16.8L26.1167 17.38C27.2234 17.34 28.1234 17.2733 28.8167 17.18C29.5101 17.0733 30.0501 16.9333 30.4367 16.76C30.8367 16.5733 31.1034 16.3533 31.2367 16.1C31.3834 15.8467 31.4567 15.54 31.4567 15.18C31.4567 14.9 31.4034 14.6733 31.2967 14.5C31.1901 14.3133 31.0501 14.1667 30.8767 14.06C30.7034 13.9533 30.4967 13.88 30.2567 13.84C30.0301 13.7867 29.7967 13.76 29.5567 13.76ZM41.6916 23C41.2382 23 40.8982 22.8867 40.6716 22.66C40.4582 22.4333 40.3516 22.1333 40.3516 21.76C40.3516 21.6 40.3716 21.42 40.4116 21.22L40.5116 20.76H40.4516C40.0249 21.6267 39.5516 22.26 39.0316 22.66C38.5116 23.0467 37.8716 23.24 37.1116 23.24C36.1649 23.24 35.4049 22.8933 34.8316 22.2C34.2582 21.4933 33.9716 20.5267 33.9716 19.3C33.9716 18.54 34.0716 17.76 34.2716 16.96C34.4849 16.1467 34.7982 15.4067 35.2116 14.74C35.6249 14.06 36.1449 13.5067 36.7716 13.08C37.4116 12.6533 38.1582 12.44 39.0116 12.44C39.3182 12.44 39.6182 12.48 39.9116 12.56C40.2049 12.64 40.4716 12.76 40.7116 12.92C40.9516 13.08 41.1582 13.28 41.3316 13.52C41.5049 13.76 41.6316 14.04 41.7116 14.36H41.7916L42.1316 12.68H43.6716L41.8716 21.64H43.3316L43.0716 23H41.6916ZM37.5316 21.84C37.9849 21.84 38.3782 21.7467 38.7116 21.56C39.0582 21.3733 39.3849 21.1267 39.6916 20.82C40.0249 20.4867 40.2982 20.12 40.5116 19.72C40.7249 19.32 40.8849 18.86 40.9916 18.34L41.4116 16.24C41.4782 15.92 41.4849 15.62 41.4316 15.34C41.3782 15.0467 41.2582 14.7933 41.0716 14.58C40.8849 14.3533 40.6316 14.1733 40.3116 14.04C39.9916 13.9067 39.6049 13.84 39.1516 13.84C38.3116 13.84 37.6182 14.1133 37.0716 14.66C36.5249 15.2067 36.1516 15.98 35.9516 16.98L35.6516 18.48C35.5849 18.8533 35.5516 19.1933 35.5516 19.5C35.5516 20.18 35.7049 20.74 36.0116 21.18C36.3316 21.62 36.8382 21.84 37.5316 21.84ZM44.7317 23L46.8117 12.68H48.3517L47.9317 14.72H48.0317C48.3917 13.9467 48.8117 13.3733 49.2917 13C49.7851 12.6267 50.4117 12.44 51.1717 12.44C51.8917 12.44 52.4517 12.64 52.8517 13.04C53.2517 13.44 53.4917 14 53.5717 14.72H53.6917C54.0384 13.9467 54.4717 13.3733 54.9917 13C55.5117 12.6267 56.1517 12.44 56.9117 12.44C57.7784 12.44 58.4251 12.6867 58.8517 13.18C59.2917 13.6733 59.5117 14.3733 59.5117 15.28C59.5117 15.7067 59.4651 16.1533 59.3717 16.62L58.3717 21.64H59.8317L59.5717 23H58.1317C57.7317 23 57.4117 22.9067 57.1717 22.72C56.9317 22.5333 56.8117 22.2467 56.8117 21.86C56.8117 21.7533 56.8317 21.6 56.8717 21.4L57.8317 16.62C57.9117 16.22 57.9517 15.8533 57.9517 15.52C57.9517 14.96 57.8251 14.54 57.5717 14.26C57.3317 13.98 56.9317 13.84 56.3717 13.84C55.7451 13.84 55.1651 14.1133 54.6317 14.66C54.2984 14.9933 54.0184 15.4 53.7917 15.88C53.5784 16.36 53.4317 16.8133 53.3517 17.24L52.1917 23H50.6517L51.9317 16.64C52.0117 16.24 52.0517 15.8533 52.0517 15.48C52.0517 14.3867 51.5717 13.84 50.6117 13.84C50.2651 13.84 49.9384 13.9133 49.6317 14.06C49.3251 14.2067 49.0584 14.4 48.8317 14.64C48.4584 15.0133 48.1517 15.44 47.9117 15.92C47.6717 16.4 47.5117 16.84 47.4317 17.24L46.2717 23H44.7317ZM62.7848 23C62.3182 23 61.9648 22.8867 61.7248 22.66C61.4982 22.42 61.3848 22.1133 61.3848 21.74C61.3848 21.62 61.4048 21.46 61.4448 21.26L64.0648 8.2H65.6048L62.9048 21.64H64.4648L64.2048 23H62.7848ZM69.1583 10.26C68.8516 10.26 68.6316 10.1933 68.4983 10.06C68.3783 9.91333 68.3183 9.74667 68.3183 9.56C68.3183 9.52 68.3183 9.46667 68.3183 9.4C68.3316 9.32 68.3583 9.18667 68.3983 9C68.4516 8.74667 68.5583 8.55333 68.7183 8.42C68.8916 8.27333 69.145 8.2 69.4783 8.2C69.785 8.2 69.9983 8.27333 70.1183 8.42C70.2516 8.55333 70.3183 8.71333 70.3183 8.9C70.3183 8.94 70.3116 9 70.2983 9.08C70.2983 9.14667 70.2783 9.27333 70.2383 9.46C70.185 9.71333 70.0716 9.91333 69.8983 10.06C69.7383 10.1933 69.4916 10.26 69.1583 10.26ZM67.4583 23C66.9916 23 66.6383 22.8867 66.3983 22.66C66.1716 22.42 66.0583 22.1133 66.0583 21.74C66.0583 21.62 66.0783 21.46 66.1183 21.26L67.8383 12.68H69.3783L67.5783 21.64H69.0383L68.7783 23H67.4583ZM70.4317 23L72.5117 12.68H74.0517L73.6317 14.72H73.7317C74.0917 13.9467 74.5184 13.3733 75.0117 13C75.5184 12.6267 76.145 12.44 76.8917 12.44C77.785 12.44 78.4517 12.6933 78.8917 13.2C79.3317 13.7067 79.5517 14.4067 79.5517 15.3C79.5517 15.4867 79.5384 15.6933 79.5117 15.92C79.4984 16.1467 79.465 16.3867 79.4117 16.64L78.4117 21.64H79.8717L79.6117 23H78.1517C77.765 23 77.4517 22.9067 77.2117 22.72C76.985 22.5333 76.8717 22.24 76.8717 21.84C76.8717 21.7733 76.8717 21.7133 76.8717 21.66C76.8717 21.6067 76.885 21.5267 76.9117 21.42L77.8717 16.64C77.9117 16.44 77.9384 16.2467 77.9517 16.06C77.965 15.86 77.9717 15.7 77.9717 15.58C77.9717 14.9933 77.845 14.56 77.5917 14.28C77.3517 13.9867 76.9517 13.84 76.3917 13.84C75.6717 13.84 75.0384 14.1133 74.4917 14.66C74.145 15.0067 73.8517 15.42 73.6117 15.9C73.3717 16.38 73.2117 16.8267 73.1317 17.24L71.9717 23H70.4317ZM85.3003 23.24C84.0603 23.24 83.1003 22.8733 82.4203 22.14C81.7403 21.4067 81.4003 20.3333 81.4003 18.92C81.4003 18.0667 81.527 17.2533 81.7803 16.48C82.047 15.6933 82.4136 15 82.8803 14.4C83.3603 13.8 83.927 13.3267 84.5803 12.98C85.247 12.62 85.987 12.44 86.8003 12.44C87.2403 12.44 87.6603 12.5 88.0603 12.62C88.4603 12.7267 88.8136 12.8933 89.1203 13.12C89.427 13.3467 89.667 13.6333 89.8403 13.98C90.027 14.3267 90.1203 14.7333 90.1203 15.2C90.1203 16.3333 89.5336 17.1733 88.3603 17.72C87.2003 18.2667 85.4136 18.5533 83.0003 18.58C82.9736 18.7267 82.9536 18.88 82.9403 19.04C82.9403 19.1867 82.9403 19.3133 82.9403 19.42C82.9403 20.1533 83.147 20.7467 83.5603 21.2C83.987 21.64 84.6003 21.86 85.4003 21.86C86.0536 21.86 86.6403 21.7133 87.1603 21.42C87.6936 21.1133 88.1603 20.7133 88.5603 20.22L89.5603 21.12C88.9203 21.9067 88.2336 22.46 87.5003 22.78C86.7803 23.0867 86.047 23.24 85.3003 23.24ZM86.6403 13.76C86.2403 13.76 85.8536 13.8333 85.4803 13.98C85.1203 14.1267 84.7936 14.3333 84.5003 14.6C84.2203 14.8533 83.9736 15.1733 83.7603 15.56C83.5603 15.9333 83.4136 16.3467 83.3203 16.8L83.2003 17.38C84.307 17.34 85.207 17.2733 85.9003 17.18C86.5936 17.0733 87.1336 16.9333 87.5203 16.76C87.9203 16.5733 88.187 16.3533 88.3203 16.1C88.467 15.8467 88.5403 15.54 88.5403 15.18C88.5403 14.9 88.487 14.6733 88.3803 14.5C88.2736 14.3133 88.1336 14.1667 87.9603 14.06C87.787 13.9533 87.5803 13.88 87.3403 13.84C87.1136 13.7867 86.8803 13.76 86.6403 13.76Z" fill="white"/>
<rect x="93" y="4" width="1" height="25" fill="#D9D9D9"/>
</svg>
